<svg xmlns="http://www.w3.org/2000/svg" width="512.015" height="341.332" viewBox="0 0 512.015 341.332">
  <g id="delete" transform="translate(-0.001 -0.008)">
    <path id="Path_4" data-name="Path 4" d="M453.348,341.34H160.016a15.954,15.954,0,0,1-11.711-5.1L4.3,181.574a15.956,15.956,0,0,1,0-21.8L148.3,5.105a15.969,15.969,0,0,1,11.711-5.1H453.348a58.717,58.717,0,0,1,58.668,58.668v224A58.714,58.714,0,0,1,453.348,341.34Zm-286.379-32H453.348a26.7,26.7,0,0,0,26.668-26.664v-224a26.705,26.705,0,0,0-26.668-26.668H166.969L37.863,170.676Zm0,0" fill="#fff"/>
    <path id="Path_5" data-name="Path 5" d="M400.016,261.34a16.042,16.042,0,0,1-11.734-5.117L249.617,106.887a16,16,0,1,1,23.465-21.758L411.75,234.461a15.988,15.988,0,0,1-11.734,26.879Zm0,0" fill="#fff"/>
    <path id="Path_6" data-name="Path 6" d="M261.348,261.34a15.988,15.988,0,0,1-11.73-26.879L388.281,85.129a16,16,0,1,1,23.469,21.758L273.082,256.223A16.042,16.042,0,0,1,261.348,261.34Zm0,0" fill="#fff"/>
  </g>
</svg>
