<svg xmlns="http://www.w3.org/2000/svg" width="511.632" height="456.797" viewBox="0 0 511.632 456.797">
  <g id="reply" transform="translate(0 -27.417)">
    <path id="Path_3" data-name="Path 3" d="M496.5,233.842q-46.262-115.059-249.823-115.06H182.724V45.693a17.562,17.562,0,0,0-5.424-12.85,17.925,17.925,0,0,0-25.7,0L5.424,179.021a17.93,17.93,0,0,0,0,25.7L151.6,350.9a18.273,18.273,0,0,0,31.121-12.848V264.958h63.953q27.973,0,50.1,1.708a361.231,361.231,0,0,1,43.968,6.143q21.846,4.425,37.979,12.135a134.419,134.419,0,0,1,30.122,19.842,99.473,99.473,0,0,1,22.847,28.839q8.844,16.7,13.846,39.539t5,51.675q0,15.7-1.428,35.118a58.492,58.492,0,0,1-.715,6.708,58.769,58.769,0,0,0-.712,7.562,10.654,10.654,0,0,0,2.423,7.136,8.352,8.352,0,0,0,6.714,2.851q4.569,0,7.994-4.853a32.636,32.636,0,0,0,3.71-6.283q1.715-3.707,3.854-8.562c1.431-3.237,2.43-5.513,3-6.848q36.255-81.357,36.258-128.756Q511.629,272.1,496.5,233.842Z" fill="#fff"/>
  </g>
</svg>
